<svg id="Слой_1" data-name="Слой 1" xmlns="http://www.w3.org/2000/svg" xmlns:xlink="http://www.w3.org/1999/xlink" viewBox="0 0 150 190"><defs><style>.cls-1{fill-rule:evenodd;fill:url(#linear-gradient);}</style><linearGradient id="linear-gradient" x1="75" y1="63.18" x2="75" y2="146.91" gradientUnits="userSpaceOnUse"><stop offset="0" stop-color="#0096ff"/><stop offset="1"/></linearGradient></defs><title>Монтажная область 32</title><path class="cls-1" d="M42.57,77.21c-.27-8.8,2.2-13.47,9.07-13.74s41.51,0,45.91-.28,9.9,3,9.9,11.27v57.13l-63.78-.5S42.85,86,42.57,77.21Zm36.25,46.42,19.3.85-.14-6-19.16-.17Zm-27-20.32c0,3.43,2.79,6.65,5.8,6.65s28.53-.22,33.25-.22,7.72-1.5,7.72-5.58-.21-20.46-.42-25-3.22-6.43-7.3-6.43-28.32.43-33.25.43-5.8,1.71-5.8,4.72ZM67.43,78.7v7.44h-5.9l.74-7.67ZM68,100.1H81.06l.45-3.86H87V102H82.81v3.39l-16,.23L66,102.4H62.15l-.22-5.26,6-.45ZM82.44,79.35l5.48.24-.17,6.78-5.31.45ZM69.19,94l.21-4.87,3.6-.36,0-9.84,5.15.22L77.93,94Zm35.67,41.92v11l-58.77-.71.36-9.56Z"/></svg>